<svg id="レイヤー_1" xmlns="http://www.w3.org/2000/svg" viewBox="0 0 670 90.7"><style>.st0{fill:#edf4f2}</style><path id="パス_24" class="st0" d="M52.3 43.1c3.4-3.9 5.1-9 4.9-14.2.1-3.7-.7-7.4-2.5-10.7-1.6-2.9-3.9-5.3-6.6-7.1C45.2 9.3 42 8 38.7 7.3c-3.6-.8-7.3-1.2-10.9-1.2H0v79.8h14.2V52.1h10.4l18.5 33.8h17.1L38.9 50.5c5.1-1 9.8-3.6 13.4-7.4zM31.9 40c-2 .3-4.1.4-6.1.4H14.2V18h12.9c1.9 0 3.7.2 5.6.4 1.8.3 3.5.8 5.1 1.7 1.5.8 2.8 1.9 3.7 3.3 1 1.6 1.5 3.5 1.5 5.4.1 2.1-.5 4.2-1.6 5.9-1 1.5-2.4 2.7-4 3.6-1.7.9-3.6 1.5-5.5 1.7z"/><path id="パス_25" class="st0" d="M96.5 50.7h36.6v-12H96.5V18.5h38.7V6.1H82.3v79.8h54.9V73.3H96.5V50.7z"/><path id="パス_26" class="st0" d="M211.1 72.7c-3.5 1.7-7.4 2.6-11.4 2.5-3.8.1-7.6-.7-11.2-2.1-3.2-1.4-6.1-3.4-8.5-6-2.4-2.7-4.3-5.9-5.5-9.3-1.3-3.8-2-7.9-1.9-12 0-3.9.6-7.8 2-11.5 1.3-3.4 3.2-6.6 5.6-9.2 2.5-2.6 5.4-4.8 8.7-6.2 6.7-2.9 14.4-3 21.2-.3 3.3 1.2 6.1 3.4 8.2 6.3l10.8-8.6c-1.6-2.1-3.5-4-5.8-5.4-2.3-1.5-4.7-2.8-7.2-3.8-2.6-1-5.3-1.8-8-2.3-2.6-.5-5.3-.7-8-.7-5.7-.1-11.5.9-17 2.9-5.1 1.8-9.7 4.7-13.7 8.3-3.9 3.7-7 8.2-9.1 13.1-2.3 5.5-3.4 11.4-3.3 17.3-.1 5.8 1 11.7 3.2 17.1 4 10.1 12.1 18.1 22.3 22 5.5 2.1 11.3 3.2 17.2 3.1 6.2.1 12.3-1.1 17.9-3.7 5.1-2.4 9.5-5.9 13-10.3l-11.4-8c-2.2 2.9-4.9 5.2-8.1 6.8z"/><path id="パス_27" class="st0" d="M414.6 43.1c3.4-3.9 5.1-9 4.9-14.2.1-3.7-.7-7.4-2.5-10.7-1.6-2.9-3.9-5.3-6.6-7.1-2.9-1.9-6.1-3.2-9.4-3.9-3.6-.8-7.3-1.2-10.9-1.2h-27.7v79.8h14.2V52.1H387l18.5 33.8h17.1l-21.3-35.4c5.1-1 9.8-3.6 13.3-7.4zM394.3 40c-2 .3-4.1.4-6.1.4h-11.6V18h12.9c1.9 0 3.7.2 5.6.4 1.8.3 3.5.8 5.1 1.7 1.5.8 2.8 1.9 3.7 3.3 1 1.6 1.5 3.5 1.5 5.4.1 2.1-.5 4.2-1.6 5.9-1 1.5-2.4 2.7-4 3.6-1.8.9-3.6 1.5-5.5 1.7z"/><path id="パス_28" class="st0" d="M458.9 50.7h36.6v-12h-36.6V18.5h38.7V6.1h-52.9v79.8h54.9V73.3h-40.7V50.7z"/><path id="パス_29" class="st0" d="M576.9 43.1c3.4-3.9 5.1-9 4.9-14.2.1-3.7-.7-7.4-2.5-10.7-1.6-2.9-3.9-5.3-6.6-7.1-2.9-1.9-6.1-3.2-9.4-3.9-3.6-.8-7.3-1.2-10.9-1.2h-27.7v79.8h14.2V52.1h10.4l18.5 33.8h17.1l-21.3-35.4c5.1-1 9.8-3.6 13.3-7.4zM556.6 40c-2 .3-4.1.4-6.1.4h-11.6V18h12.9c1.9 0 3.7.2 5.6.4 1.8.3 3.5.8 5.1 1.7 1.5.8 2.8 1.9 3.7 3.3 1 1.6 1.5 3.5 1.5 5.4.1 2.1-.5 4.2-1.6 5.9-1 1.5-2.4 2.7-4 3.6-1.8.9-3.6 1.5-5.5 1.7z"/><path id="パス_30" class="st0" d="M655.8 6.1v50c0 2.3-.3 4.7-.9 6.9-.6 2.2-1.6 4.3-3 6.1-1.5 1.9-3.4 3.4-5.5 4.4-5.5 2.3-11.6 2.3-17 0-2.2-1-4-2.5-5.5-4.4-1.4-1.8-2.4-3.9-3-6.1-.6-2.3-.9-4.6-.9-6.9v-50h-14.2v50.5c-.1 4.5.8 8.9 2.4 13 1.5 3.7 3.8 7.1 6.8 9.9 3 2.7 6.4 4.9 10.2 6.3 8.2 2.9 17.2 2.9 25.5 0 3.8-1.4 7.2-3.5 10.1-6.3 2.9-2.8 5.2-6.1 6.8-9.9 1.7-4.1 2.5-8.6 2.5-13V6.1h-14.3z"/><path class="st0" d="M292.6 0c-25 0-45.3 20.3-45.3 45.3 0 25 20.3 45.3 45.3 45.3S338 70.4 338 45.3c0-25-20.3-45.3-45.4-45.3zm0 77.4c-17.7 0-32.1-14.4-32.1-32.1 0-17.7 14.4-32.1 32.1-32.1 17.7 0 32.1 14.4 32.1 32.1 0 17.8-14.3 32.1-32.1 32.1z"/><path id="パス_32" class="st0" d="M292.6 29.1c-9 0-16.3 7.3-16.3 16.3s7.3 16.3 16.3 16.3 16.3-7.3 16.3-16.3-7.3-16.3-16.3-16.3z"/></svg>