<svg id="レイヤー_1" xmlns="http://www.w3.org/2000/svg" viewBox="0 0 150 74"><style>.st0{fill:#6bb937}.st1{fill:#868686}</style><g id="グループ化_78" transform="translate(0 -.1)"><g id="グループ化_72" transform="translate(49.106 .1)"><path id="パス_43" class="st0" d="M25.9 15.4c-.2 0-.3 0-.5.1l-2.5 1.9c-.3.2-.4.7-.2 1l2.5 5.5c.1.3.4.5.7.5.3 0 .6-.2.7-.5l2.5-5.5c.1-.4 0-.8-.2-1l-2.5-1.9c-.2-.1-.4-.1-.5-.1z"/><path id="パス_44" class="st0" d="M13.3 13.8c0 1.1.9 2 2.1 2 1.1 0 2-.9 2-2.1 0-1.1-.9-2-2.1-2-.5 0-1.1.2-1.4.6-.4.4-.6.9-.6 1.5z"/><path id="パス_45" class="st0" d="M38.5 13.8c0-1.1-.9-2.1-2.1-2.1-1.1 0-2.1.9-2.1 2.1 0 1.1.9 2.1 2.1 2.1 1.1-.1 2-1 2.1-2.1z"/><path id="パス_46" class="st0" d="M49.3 15.2c-.4-1-1-1.9-1.5-2.8-1.2-1.8-1.9-3.9-1.9-6.1 0-1.5.2-3.1.6-4.6-3.4-.9-9.1 1.1-11.5.2C32.1.8 29 .3 25.9.3c-3.1 0-6.2.6-9.1 1.6-2.5.9-8.2-1.1-11.5-.2.4 1.5.7 3 .6 4.6 0 2.2-.7 4.3-1.9 6.1-.6.9-1.1 1.8-1.5 2.8-6.1 12.9-.5 28.3 12.4 34.4C25.4 54.5 38 51.8 45.5 43c-4.6-10.7-35.1-9.1-38.9-24-.3-1.3-.4-2.5-.3-3.8.2-1.9.9-3.7 2.1-5.1.8-1 1.9-1.8 3-2.4 3-1.6 6.5-1.6 9.5 0 1.1.6 2 1.4 2.8 2.4.4.5.7 1 1 1.5.1.2.7.3 1.2.4.5.1.9-.1 1.2-.4.3-.6.6-1.1 1-1.5.8-1 1.7-1.8 2.8-2.4 3-1.6 6.5-1.6 9.5 0 1.2.6 2.2 1.4 3 2.4 1.2 1.4 2 3.2 2.1 5.1.1 1.3 0 2.6-.3 3.8-1.4 5.6-5.3 8.2-13.5 11.5 7 2.6 13 5.1 16.3 9 2.4-4 3.7-8.7 3.7-13.4.1-3.8-.8-7.5-2.4-10.9z"/></g><g id="グループ化_77" transform="translate(0 60.129)"><g id="グループ化_73"><path id="パス_47" class="st1" d="M20 10.3V9.2h3c.7 0 1.2-.6 1.2-1.3 0-.7-.5-1.2-1.2-1.2h-.7c-.3 0-.5-.1-.8-.1-.4-.1-.7-.3-1-.6-.2-.2-.4-.5-.5-.8-.2-.5-.2-1 0-1.5.2-.7.8-1.2 1.4-1.4.2-.1.5-.1.8-.1h3.5v1.1h-2.1c-.7 0-1.2.6-1.2 1.3 0 .7.5 1.2 1.2 1.2h.7c.3 0 .5.1.8.1.4.1.7.3 1 .6.2.2.4.5.5.8.1.2.1.5.1.8 0 .3 0 .5-.1.8-.2.7-.8 1.2-1.4 1.4-.2.1-.5.1-.8.1l-4.4-.1z"/><path id="パス_48" class="st1" d="M30.1 10.3c-.3 0-.5 0-.8-.1-.7-.2-1.2-.8-1.4-1.4-.1-.2-.1-.5-.1-.8V.3h2.5V2c0 .1 0 .1.1.1h1.2v1.1h-1.2c-.1 0-.1 0-.1.1V8c0 .7.6 1.2 1.2 1.2v1.1h-1.4z"/><path id="パス_49" class="st1" d="M50.1 10.3V4.4c0-.7-.6-1.2-1.2-1.2h-.4c-.1 0-.1 0-.1.1v7.1h-2.5V3.2c0-.1 0-.1-.1-.1h-1.6c-.1 0-.1 0-.1.1v7.1h-2.5V2h8.6c.3 0 .5.1.8.1.7.2 1.2.8 1.4 1.4.1.2.1.5.1.8v5.9l-2.4.1z"/><path id="パス_50" class="st1" d="M12.6 13.5v-1.1h2c.7 0 1.4-.5 1.5-1.2v-.8c0-.1 0-.1-.1-.1h-2.5c-.3 0-.5 0-.8-.1-.7-.2-1.2-.8-1.4-1.4-.1-.2-.1-.5-.1-.8V2h2.5v6c0 .7.6 1.2 1.2 1.2h1.2c.1 0 .1 0 .1-.1V2h2.5v9.1c0 .3-.1.5-.1.8-.2.7-.8 1.2-1.4 1.4-.2.1-.5.1-.8.1l-3.8.1z"/><path id="パス_51" class="st1" d="M35 10.3c-.3 0-.5-.1-.8-.1-.7-.2-1.2-.8-1.4-1.4-.1-.2-.1-.5-.1-.8V4.4c0-.3.1-.5.1-.8.2-.7.8-1.2 1.4-1.4.3-.1.6-.2.8-.2h2.9c.3 0 .5 0 .8.1.7.2 1.2.8 1.4 1.4.1.2.1.5.1.8v2.3h-5c-.1 0-.1 0-.1.1V8c0 .7.6 1.2 1.2 1.2h2.8v1.1H35zm1.4-7.2c-.7 0-1.2.5-1.2 1.2v1.1c0 .1 0 .1.1.1h2.4c.1 0 .1 0 .1-.1V4.3c0-.7-.6-1.2-1.2-1.2h-.2z"/><path id="パス_52" class="st1" d="M0 10.3V9.2h5.7c.9 0 1.6-.7 1.6-1.6S6.6 6 5.7 6h-3C1.6 6 .7 5.4.2 4.4c-.3-.7-.3-1.6 0-2.3C.7 1.1 1.6.5 2.7.5h6.1v1.1H4.1c-.9 0-1.6.7-1.6 1.6s.7 1.6 1.6 1.6H7c1.1 0 2 .6 2.5 1.6.3.7.3 1.6 0 2.3-.5 1-1.4 1.6-2.5 1.6H0z"/></g><g id="グループ化_75" transform="translate(55.573 .192)"><path id="パス_53" class="st0" d="M19.7 10.1V9h3c.7 0 1.3-.5 1.3-1.2s-.5-1.3-1.2-1.3H22c-.3 0-.5 0-.8-.1-.4-.1-.7-.3-1-.6 0-.3-.2-.5-.3-.8-.2-.5-.2-1 0-1.5.2-.7.8-1.2 1.4-1.4.2-.1.5-.1.8-.1h3.5v1h-2.1c-.7 0-1.2.6-1.2 1.3 0 .7.5 1.2 1.2 1.2h.7c.3 0 .5.1.8.1.4.1.7.3 1 .6.2.2.4.5.5.8.1.2.1.5.1.8 0 .3 0 .5-.1.8-.2.7-.8 1.2-1.4 1.4-.2.1-.5.1-.8.1h-4.6z"/><path id="パス_54" class="st0" d="M32.2 13.5v-1.1h3.1c.7 0 1.2-.5 1.2-1.2v-1c0-.1 0-.1-.1-.1h-2.6c-.3 0-.5 0-.8-.1-.7-.2-1.2-.8-1.4-1.4-.1-.2-.1-.5-.1-.8V4.1c0-.3.1-.5.1-.8.2-.7.8-1.2 1.4-1.4.2-.1.5-.1.8-.1H39v9.3c0 .3-.1.5-.1.8-.2.7-.8 1.2-1.4 1.4-.2.1-.5.1-.8.1l-4.5.1zm3-10.6c-.7 0-1.2.5-1.2 1.2v3.6c0 .7.6 1.2 1.2 1.2h1.2c.1 0 .1 0 .1-.1V3c0-.1 0-.1-.1-.1h-1.2z"/><path id="パス_55" class="st0" d="M13.4 10.1c-.3 0-.5-.1-.8-.1-.7-.2-1.2-.8-1.4-1.4-.1-.2-.1-.5-.1-.8V4.2c0-.3.1-.5.1-.8.2-.7.8-1.2 1.4-1.4.2-.1.5-.1.8-.1h2.9c.3 0 .5 0 .8.1.7.2 1.2.8 1.4 1.4.1.2.1.5.1.8v2.3h-5c-.1 0-.1 0-.1.1v1.1c0 .7.6 1.2 1.2 1.2h2.8V10l-4.1.1zm1.4-7.2c-.7 0-1.2.5-1.2 1.2v1.1c0 .1 0 .1.1.1h2.4c.1 0 .1 0 .1-.1V4.1c0-.7-.6-1.2-1.2-1.2h-.2z"/><path id="パス_56" class="st0" d="M45.5 10.1V4.2c0-.7-.6-1.2-1.2-1.2H43c-.1 0-.1 0-.1.1v7.1h-2.5V1.8h5.3c.3 0 .5 0 .8.1.7.2 1.2.8 1.4 1.4.1.2.1.5.1.8V10l-2.5.1z"/><path id="パス_57" class="st0" d="M0 10.1V.3h7.3c.3 0 .5 0 .8.1.7.2 1.2.8 1.4 1.4.1.2.1.5.1.8v5.1c0 .3-.1.5-.1.8-.2.7-.7 1.2-1.4 1.5-.2.1-.5.1-.8.1H0zm2.6-8.7c-.1 0-.1 0 0 0l-.1 7.5c0 .1 0 .1.1.1H6c.7 0 1.2-.5 1.2-1.2V2.7c0-.7-.5-1.3-1.2-1.3H2.6z"/><g id="グループ化_74" transform="translate(27.595 .479)"><path id="長方形_56" class="st0" d="M0 4.1h2.5v5.6H0z"/><path id="パス_58" class="st1" d="M1.2 2.6C.6 2.6 0 2.1 0 1.5 0 .9.5.3 1.1.3c.6 0 1.2.5 1.2 1.1.1.7-.4 1.2-1.1 1.2z"/></g></g><g id="グループ化_76" transform="translate(106.547 .048)"><path id="パス_59" class="st1" d="M36.7 10.3V9.2h3c.7 0 1.3-.6 1.3-1.2 0-.7-.5-1.3-1.2-1.3H39c-.3 0-.5 0-.8-.1-.4-.1-.7-.3-1-.6-.2-.2-.4-.5-.5-.8-.2-.5-.2-1 0-1.5.2-.7.8-1.2 1.4-1.4.4-.2.7-.3.9-.3h3.5v1.1h-2.1c-.7 0-1.3.5-1.3 1.2s.5 1.3 1.2 1.3h.8c.3 0 .5.1.8.1.4.1.7.3 1 .6.2.2.4.5.5.8.1.2.1.5.1.8 0 .3 0 .5-.1.8-.2.7-.8 1.2-1.4 1.4-.2.1-.5.1-.8.1l-4.5.1z"/><path id="パス_60" class="st1" d="M23.3 10.3v-6c0-.3.1-.5.1-.8.2-.7.8-1.2 1.4-1.4.4-.1.6-.1.9-.1h1.4v1.1c-.7 0-1.2.5-1.2 1.2v5.9l-2.6.1z"/><path id="パス_61" class="st1" d="M33.1 10.3l-.7-2.4c-.2-.6-.7-1.1-1.3-1.1h-.4c-.1 0-.1 0-.1.1v3.5h-2.5V.4h2.5v5.2c0 .1 0 .1.1.1h.4c.6-.1 1.2-.5 1.3-1.1l.7-2.6h2.4l-.6 2.3c-.1.6-.5 1.2-1 1.6l-.2.2.3.2c.5.4.8 1 1 1.6l.6 2.3-2.5.1z"/><path id="パス_62" class="st1" d="M16.2 10.3c-.3 0-.5 0-.8-.1-.7-.2-1.2-.8-1.4-1.4-.1-.2-.1-.5-.1-.8V4.3c0-.3.1-.5.1-.8.2-.7.8-1.2 1.4-1.4.3-.1.5-.1.8-.1h3.4c.3 0 .5 0 .8.1.7.2 1.2.8 1.4 1.4.1.2.1.5.1.8v3.6c0 .3-.1.5-.1.8-.2.7-.8 1.2-1.4 1.4-.2.1-.5.1-.8.1h-3.4zm1.4-7.2c-.7 0-1.2.5-1.2 1.2v3.6c0 .7.6 1.2 1.2 1.2h.7c.7 0 1.2-.5 1.2-1.2V4.3c0-.7-.6-1.2-1.2-1.2h-.7z"/><path id="パス_63" class="st1" d="M0 10.3V.4h2.5V9c0 .1 0 .1.1.1h2.3c.1.1.1 0 .1 0V.4h2.5V9c0 .1 0 .1.1.1h1.2c.7 0 1.2-.5 1.2-1.2V.5h2.5V8c0 .3-.1.5-.1.8-.2.7-.8 1.2-1.4 1.4-.2.1-.5.1-.8.1H0z"/></g></g></g></svg>